<svg version="1.0" xmlns="http://www.w3.org/2000/svg" width="1024.000000pt" height="1024.000000pt" viewBox="0 0 1024.000000 1024.000000" preserveAspectRatio="xMidYMid meet">
<g transform="translate(0.000000,1024.000000) scale(0.100000,-0.100000)" stroke="none" fill="#ffffff">
<path d="M4985 8314 c-610 -40 -1237 -263 -1690 -602 -117 -88 -253 -210 -270 -242 -21 -40 -19 -93 4 -139 24 -46 56 -68 109 -77 52 -8 87 9 190 95 458 380 992 601 1601 661 472 47 1034 -56 1451 -265 205 -102 399 -224 533 -334 122 -99 144 -111 201 -111 55 0 91 18 124 60 84 108 10 201 -350 443 -403 272 -873 440 -1393 497 -102 11 -419 20 -510 14z"/>
<path d="M2421 7375 c-135 -38 -246 -130 -304 -252 -30 -64 -32 -74 -32 -183 0 -109 2 -119 32 -183 56 -119 130 -183 353 -305 376 -208 638 -606 818 -1248 84 -296 111 -405 178 -719 141 -656 270 -1130 364 -1340 113 -252 324 -386 539 -341 121 25 209 83 289 190 93 126 131 245 237 746 82 388 152 670 210 850 25 75 45 151 45 169 0 106 -97 180 -223 168 -94 -8 -177 -55 -278 -156 -138 -138 -184 -244 -290 -660 -33 -129 -62 -237 -64 -240 -3 -2 -7 -2 -10 1 -10 10 -50 260 -156 983 -104 711 -168 1008 -283 1300 -159 404 -432 767 -763 1013 -222 164 -330 211 -503 218 -74 3 -121 0 -159 -11z"/>
<path d="M7600 7370 c-197 -53 -476 -264 -711 -537 -188 -218 -341 -489 -444 -783 -75 -217 -153 -605 -220 -1100 -73 -543 -96 -702 -126 -872 -31 -179 -41 -219 -53 -207 -3 3 -24 84 -46 180 -64 277 -98 386 -155 504 -78 160 -183 273 -314 338 -57 28 -76 32 -146 32 -65 0 -87 -4 -115 -22 -82 -51 -91 -128 -35 -293 20 -58 51 -161 69 -230 32 -118 54 -212 191 -820 31 -135 67 -283 81 -330 63 -208 185 -360 330 -411 171 -60 352 -14 481 125 120 128 155 199 251 521 90 298 165 609 267 1115 49 241 145 632 194 790 99 316 149 425 289 630 142 208 303 349 561 496 141 80 220 154 268 252 37 74 38 79 38 181 -1 87 -5 117 -24 164 -44 112 -149 213 -271 263 -90 37 -250 43 -360 14z"/>
<path d="M5068 6690 c-183 -33 -341 -155 -427 -332 -84 -170 -84 -343 -1 -517 32 -66 57 -100 113 -155 119 -117 242 -168 407 -169 164 -1 303 54 410 162 118 120 180 250 188 391 9 175 -42 310 -163 439 -72 75 -161 133 -254 161 -73 23 -205 33 -273 20z"/>
<path d="M2315 6356 c-47 -21 -72 -56 -119 -162 -78 -177 -129 -366 -171 -634 -26 -163 -32 -606 -11 -788 56 -483 199 -920 427 -1308 123 -210 404 -550 491 -595 91 -47 196 1 214 97 10 53 -2 79 -69 157 -304 353 -453 590 -575 917 -91 243 -145 464 -176 720 -41 340 -27 618 50 1015 28 143 42 187 103 322 47 104 49 121 20 179 -34 72 -121 109 -184 80z"/>
<path d="M8084 5916 c-17 -7 -42 -29 -55 -47 -29 -42 -31 -100 -6 -299 59 -475 15 -940 -129 -1367 -111 -332 -301 -680 -497 -913 -104 -122 -300 -322 -387 -394 -398 -329 -840 -531 -1355 -622 -125 -22 -189 -27 -390 -31 -263 -6 -405 6 -651 53 -158 30 -195 25 -244 -34 -29 -34 -31 -42 -28 -95 4 -49 9 -62 39 -93 40 -42 81 -54 279 -88 370 -63 738 -63 1080 0 575 106 1049 322 1460 666 221 185 347 317 506 528 261 347 435 709 539 1120 115 456 136 899 64 1374 -20 137 -43 193 -90 228 -34 25 -96 32 -135 14z"/>
<path d="M3176 4164 c-10 -9 -16 -26 -14 -38 2 -17 10 -21 38 -21 33 0 35 2 35 35 0 28 -4 36 -21 38 -12 2 -29 -4 -38 -14z"/>
<path d="M3362 4158 c-7 -7 -12 -21 -12 -33 0 -43 50 -62 70 -26 14 27 13 37 -6 55 -19 19 -36 20 -52 4z"/>
<path d="M2920 4101 c-14 -26 -13 -64 2 -79 19 -19 65 -14 81 9 15 20 12 53 -6 77 -15 19 -65 15 -77 -7z"/>
<path d="M3285 3980 c3 -5 8 -10 11 -10 2 0 4 5 4 10 0 6 -5 10 -11 10 -5 0 -7 -4 -4 -10z"/>
</g>
</svg>