<svg version="1.0" xmlns="http://www.w3.org/2000/svg"
 width="200.000000pt" height="200.000000pt" viewBox="0 0 200.000000 200.000000"
 preserveAspectRatio="xMidYMid meet">

<g transform="translate(0.000000,200.000000) scale(0.100000,-0.100000)"
fill="#ffffff" stroke="none">
<path d="M332 1989 c-46 -13 -109 -79 -122 -128 -7 -27 -10 -305 -8 -883 l3
-843 24 -38 c13 -21 42 -50 64 -65 l41 -27 666 0 666 0 41 27 c22 15 51 44 64
65 l24 38 3 633 3 632 -301 0 -300 0 0 300 0 300 -417 -1 c-231 0 -433 -5
-451 -10z m803 -722 c59 -30 104 -75 136 -137 35 -69 34 -185 -4 -262 -29 -59
-76 -106 -134 -133 l-32 -15 -3 -235 c-3 -229 -4 -235 -26 -257 -17 -18 -34
-23 -71 -23 -56 0 -86 21 -96 66 l-7 29 -99 0 -99 0 0 30 c0 29 1 30 50 30
l50 0 0 40 0 40 -50 0 c-49 0 -50 1 -50 30 l0 30 100 0 100 0 0 109 0 110 -46
23 c-54 27 -99 75 -128 137 -30 67 -29 190 3 251 41 79 105 133 191 161 49 16
162 4 215 -24z"/>
<path d="M951 1186 c-87 -48 -50 -186 49 -186 51 0 100 49 100 99 0 75 -83
124 -149 87z"/>
<path d="M1400 1800 l0 -200 202 0 203 0 -200 200 c-110 110 -201 200 -202
200 -2 0 -3 -90 -3 -200z"/>
</g>
</svg>
