<svg version="1.0" xmlns="http://www.w3.org/2000/svg"
 width="200.000000pt" height="200.000000pt" viewBox="0 0 200.000000 200.000000"
 preserveAspectRatio="xMidYMid meet">

<g transform="translate(0.000000,200.000000) scale(0.100000,-0.100000)"
fill="#ffffff" stroke="none">
<path d="M71 1982 c-19 -10 -43 -34 -53 -53 -17 -32 -18 -76 -18 -765 l0 -731
23 -34 c44 -67 57 -69 388 -69 l296 0 -15 -65 -16 -65 -52 0 c-66 0 -100 -13
-142 -53 -42 -40 -57 -93 -37 -124 l15 -23 540 0 540 0 15 23 c12 19 13 30 4
58 -26 76 -92 119 -182 119 l-53 0 -16 65 -15 65 296 0 c331 0 344 2 388 69
l23 34 0 731 c0 689 -1 733 -18 765 -10 19 -34 43 -53 53 -32 17 -81 18 -929
18 -848 0 -897 -1 -929 -18z m1841 -69 c17 -15 18 -49 18 -665 l0 -648 -930 0
-930 0 0 647 c0 587 2 648 17 665 15 17 57 18 911 18 819 0 897 -1 914 -17z
m-1037 -1448 l0 -65 -380 0 c-439 0 -425 -3 -425 81 l0 49 403 0 402 0 0 -65z
m169 50 c48 -49 6 -127 -60 -111 -74 19 -60 126 16 126 16 0 35 -7 44 -15z
m886 -30 c0 -32 -6 -51 -20 -65 -19 -19 -33 -20 -402 -20 l-383 0 0 65 0 65
403 0 402 0 0 -45z m-688 -220 l15 -65 -257 0 -257 0 15 65 16 65 226 0 226 0
16 -65z m222 -156 c14 -11 26 -25 26 -30 0 -5 -196 -9 -490 -9 -294 0 -490 4
-490 9 0 5 12 19 26 30 26 21 37 21 464 21 427 0 438 0 464 -21z"/>
<path d="M172 1860 c-12 -5 -27 -21 -32 -35 -6 -16 -10 -234 -10 -561 0 -535
2 -565 34 -586 6 -4 383 -8 838 -8 898 0 849 -3 863 53 3 12 4 266 3 564 -3
505 -4 544 -21 560 -17 17 -65 18 -835 20 -478 1 -826 -2 -840 -7z m798 -310
l0 -250 -72 1 -73 0 -30 42 c-17 22 -49 55 -71 72 l-41 32 20 28 c13 18 22 48
25 84 3 46 0 62 -20 91 -37 55 -83 80 -143 80 -128 0 -203 -128 -142 -241 l25
-47 -36 -23 c-20 -13 -52 -45 -72 -71 -34 -47 -36 -48 -87 -48 l-53 0 0 250 0
250 385 0 385 0 0 -250z m830 0 l0 -250 -72 0 -73 1 -27 44 c-15 25 -47 58
-71 73 l-44 28 18 23 c58 72 40 182 -38 236 -53 35 -133 35 -186 0 -67 -46
-91 -125 -59 -198 11 -24 25 -48 31 -52 8 -4 -5 -18 -34 -36 -25 -16 -58 -49
-73 -74 -27 -44 -27 -44 -84 -45 l-58 0 0 250 0 250 385 0 385 0 0 -250z
m-1194 105 c40 -16 68 -70 58 -110 -11 -43 -52 -75 -96 -75 -106 0 -136 150
-38 189 34 13 36 13 76 -4z m868 -26 c24 -27 27 -38 23 -73 -16 -116 -178
-116 -194 -1 -4 32 0 46 17 68 44 56 106 58 154 6z m-844 -239 c36 -10 110
-64 110 -81 0 -5 -75 -9 -176 -9 l-176 0 14 23 c22 31 113 77 157 77 20 0 52
-4 71 -10z m855 -9 c22 -10 53 -33 69 -50 l30 -31 -184 0 -184 0 30 31 c39 42
99 69 154 69 25 0 63 -9 85 -19z m-517 -398 l-3 -248 -70 -2 -70 -3 -27 45
c-15 25 -47 58 -72 73 l-44 28 25 40 c32 51 29 134 -7 183 -55 79 -168 90
-240 25 -66 -59 -78 -152 -29 -217 17 -24 19 -32 9 -35 -23 -8 -101 -84 -116
-114 -13 -25 -19 -28 -69 -28 l-55 0 0 250 0 250 385 0 385 0 -2 -247z m832
-3 l0 -250 -70 0 -70 0 -24 38 c-23 37 -63 75 -102 98 -17 10 -17 12 -1 35 10
13 22 41 28 62 30 114 -89 232 -201 198 -113 -34 -158 -148 -99 -250 19 -31
19 -35 4 -44 -32 -18 -85 -69 -106 -103 -20 -33 -23 -35 -73 -32 l-51 3 -3
248 -2 247 385 0 385 0 0 -250z m-1168 91 c27 -24 33 -36 33 -71 0 -35 -6 -47
-34 -72 -29 -26 -39 -30 -75 -25 -84 12 -117 108 -57 168 40 40 89 40 133 0z
m817 15 c67 -35 65 -143 -4 -174 -51 -23 -107 -7 -131 39 -47 91 44 182 135
135z m-796 -272 c35 -18 87 -63 87 -76 0 -4 -79 -8 -175 -8 -96 0 -175 4 -175
8 0 15 54 61 90 76 46 20 133 20 173 0z m865 -17 c23 -15 46 -36 52 -47 11
-20 8 -20 -170 -20 -175 0 -180 1 -170 19 11 22 55 55 91 71 13 5 54 9 90 7
52 -2 75 -8 107 -30z"/>
</g>
</svg>
