<svg version="1.0" xmlns="http://www.w3.org/2000/svg"
 width="200.000000pt" height="200.000000pt" viewBox="0 0 200.000000 200.000000"
 preserveAspectRatio="xMidYMid meet">

<g transform="translate(0.000000,200.000000) scale(0.100000,-0.100000)"
fill="#ffffff" stroke="none">
<path d="M911 1885 c-30 -9 -69 -24 -86 -35 -48 -30 -114 -105 -138 -158 -21
-45 -22 -59 -22 -407 l0 -360 33 -67 c60 -122 166 -188 302 -188 136 0 242 66
302 188 l33 67 0 360 0 360 -28 57 c-72 147 -243 226 -396 183z m186 -130 c51
-26 88 -65 111 -118 9 -20 12 -120 12 -355 0 -364 -2 -373 -71 -440 -30 -30
-108 -62 -149 -62 -44 0 -119 32 -153 66 -67 67 -68 78 -65 456 l3 336 30 43
c39 56 120 99 184 99 30 0 65 -9 98 -25z"/>
<path d="M499 1349 c-20 -20 -21 -28 -17 -237 4 -206 6 -220 31 -285 34 -86
72 -141 143 -206 73 -67 143 -102 247 -125 l27 -6 0 -130 0 -130 -148 0 c-132
0 -151 -2 -165 -18 -21 -23 -22 -62 -3 -88 14 -18 30 -19 386 -19 356 0 372 1
386 19 19 27 18 70 -4 89 -16 14 -43 17 -165 17 l-147 0 0 130 0 130 28 6
c108 24 205 78 278 155 52 55 84 107 114 184 22 55 24 79 28 277 4 209 3 217
-17 237 -26 26 -65 27 -91 1 -19 -19 -20 -33 -20 -203 0 -133 -4 -199 -15
-242 -29 -111 -108 -204 -214 -254 -49 -23 -68 -26 -161 -26 -93 0 -112 3
-161 26 -106 50 -185 143 -214 254 -11 43 -15 109 -15 242 0 170 -1 184 -20
203 -26 26 -65 25 -91 -1z"/>
</g>
</svg>
